# xmcd
#
# Track frame offsets:
#	150
#	15895
#	33510
#	49960
#	70376
#	89890
#	100180
#	117402
#	146441
#	160717
#	175714
#	192667
#	207025
#	222102
#	234946
#	247951
#
# Disc length: 3499 seconds
#
# Revision: 0
# Processed by: cddbd v1.5.2PL0 Copyright (c) Steve Scherf et al.
# Submitted via: EZCDAudioConverter 7.1.6.1
#
DISCID=da0da910
DTITLE=Mike Goudreau - Alternate Takes Vol. 1
DYEAR=2017
DGENRE=Blues
TTITLE0=Can't Take It No More
TTITLE1=Should Quit Your Drinkin'
TTITLE2=Mend My Broken Heart
TTITLE3=Got Your Letter
TTITLE4=You Can't Keep A Good Man Down
TTITLE5=Easy To Love
TTITLE6=The Grass Ain't Greener
TTITLE7=Come Back Home
TTITLE8=You Hurt Me So
TTITLE9=Awful Jealousy
TTITLE10=Growing Pains
TTITLE11=Happy Birthday Blues
TTITLE12=Poor Lonely People
TTITLE13=Swingin' Vibes
TTITLE14=She's In The Pocket
TTITLE15=Comme Back Home "Alternate version"
EXTD=
EXTT0=
EXTT1=
EXTT2=
EXTT3=
EXTT4=
EXTT5=
EXTT6=
EXTT7=
EXTT8=
EXTT9=
EXTT10=
EXTT11=
EXTT12=
EXTT13=
EXTT14=
EXTT15=
PLAYORDER=
